<svg width="567" height="574" viewBox="0 0 567 574" fill="none" xmlns="http://www.w3.org/2000/svg">
<ellipse cx="371.23" cy="176.444" rx="17.2687" ry="16.0269" fill="white"/>
<ellipse cx="196.271" cy="176.444" rx="17.2687" ry="16.0269" fill="white"/>
<path fill-rule="evenodd" clip-rule="evenodd" d="M410.726 281.985C410.726 331.531 353.842 371.697 283.672 371.697C213.502 371.697 156.618 331.531 156.618 281.985C156.618 232.439 213.502 192.274 283.672 192.274C353.842 192.274 410.726 232.439 410.726 281.985ZM285.997 248.387C298.16 247.682 307.662 241.667 307.662 234.352C307.662 226.564 296.89 220.249 283.602 220.249C270.314 220.249 259.542 226.564 259.542 234.352C259.542 241.714 269.164 247.758 281.439 248.399L279.413 310.027H288.024L285.997 248.387Z" fill="#FF204E"/>
<path d="M417.229 68.0272C433.361 -35.937 594.006 59.1703 484.259 114.632C616.41 275.744 509.48 452.674 439.496 521L448.358 435.382C253.494 570.177 -124.01 384.138 77.5345 114.21C-16.3075 42.0897 125.705 -27.9242 150.927 63.5988C247.268 19.0608 365.65 41.6671 417.229 68.0272Z" stroke="#FF204E" stroke-width="40"/>
<ellipse cx="359.689" cy="177.458" rx="11.5086" ry="10.681" fill="#FF204E"/>
<ellipse cx="185.575" cy="177.803" rx="10.3948" ry="9.64734" fill="#FF204E"/>
</svg>
